<svg width="698" height="594" viewBox="0 0 698 594" fill="none" xmlns="http://www.w3.org/2000/svg">
<path d="M646.696 566.556H39.2198L38.7275 565.97C38.4486 565.637 11.1402 532.36 38.6334 492.767C66.046 453.297 71.4052 437.584 56.8883 402.274C54.3599 396.128 51.1478 389.476 47.7491 382.435C30.6467 347.007 9.36279 302.915 48.4043 268.947C51.514 266.241 54.543 263.617 57.4998 261.058C97.3511 226.543 123.68 203.743 133.758 163.047C137.886 146.386 146.888 122.544 166.342 103.575C184.678 85.698 207.665 76.6328 234.673 76.6328C255.694 76.6328 278.984 82.2708 303.897 93.3924C377.459 126.225 403.447 135.77 433.911 135.77C444.044 135.77 454.838 134.769 468.982 133.355C474.646 132.788 480.45 132.501 486.231 132.501C523.266 132.501 555.395 143.866 574.379 163.684C589.413 179.377 596.494 200.019 595.421 225.036C594.777 240.088 593.752 252.846 592.85 264.102C589.183 309.823 587.814 326.931 621.943 356.406C671.422 399.142 704.034 476.587 647.185 565.797L646.696 566.556ZM40.7872 563.265H644.89C699.94 476.148 668.086 400.611 619.791 358.898C584.397 328.332 585.909 309.449 589.566 263.839C590.466 252.611 591.486 239.887 592.13 224.891C593.163 200.81 586.389 180.981 572 165.96C553.631 146.788 522.371 135.794 486.229 135.794C480.557 135.794 474.864 136.076 469.308 136.632C455.068 138.055 444.197 139.063 433.911 139.063C402.837 139.063 376.613 129.454 302.555 96.3996C278.065 85.4695 255.227 79.9272 234.673 79.9272C216.624 79.9272 156.238 85.9786 136.955 163.838C126.625 205.548 99.9837 228.622 59.657 263.548C56.7035 266.103 53.6745 268.729 50.5665 271.434C13.4234 303.75 34.1025 346.587 50.7177 381.005C54.1398 388.091 57.3722 394.786 59.9358 401.026C75.785 439.577 67.9041 456.398 41.3416 494.647C17.2269 529.371 37.407 558.789 40.7872 563.265Z" fill="#B8E1E2"/>
<path d="M51.8718 564.911C51.8718 564.911 25.8134 533.951 51.8718 496.421C77.9337 458.895 84.1883 443.368 69.5941 407.875C55 372.377 16.9782 319.736 61.006 281.425C105.035 243.114 133.073 221.264 143.603 178.748C157.352 123.236 206.98 69.0325 305.073 112.813C403.167 156.596 412.548 156.594 464.668 151.383C516.788 146.171 587.674 164.971 584.546 237.921C581.418 310.872 568.909 329.542 610.606 365.556C652.304 401.567 691.915 474.951 634.581 564.911H51.8718Z" fill="#B8E1E2"/>
<path d="M279.754 244.641C279.754 244.641 254.656 399.589 350.536 399.589C446.413 399.589 423.994 238.607 423.994 238.607L282.699 244.643" fill="#814C4A"/>
<g opacity="0.2">
<path d="M288.986 266.471C288.986 266.471 288.972 268.156 288.947 271.104C288.905 274.046 289.021 278.251 289.179 283.278C289.355 288.306 289.688 294.159 290.251 300.399C290.509 303.52 290.923 306.732 291.314 309.993C291.751 313.246 292.23 316.545 292.865 319.816C293.423 323.097 294.135 326.351 294.913 329.53C295.287 331.122 295.756 332.675 296.142 334.229C296.574 335.778 297.058 337.281 297.5 338.773C298.011 340.245 298.511 341.69 299.002 343.104C299.546 344.497 300.05 345.876 300.594 347.193C301.172 348.499 301.737 349.765 302.28 350.995C302.874 352.198 303.449 353.364 304 354.479C305.223 356.648 306.318 358.663 307.449 360.354C308.487 362.112 309.64 363.468 310.478 364.674C312.314 366.95 313.403 368.257 313.403 368.257C313.403 368.257 313.09 367.973 312.504 367.444C311.934 366.9 311.019 366.166 309.994 365.097C309.025 363.983 307.699 362.732 306.456 361.074C305.826 360.257 305.085 359.424 304.427 358.466C303.771 357.502 303.083 356.485 302.365 355.425C301.71 354.332 301.028 353.183 300.322 351.996C299.655 350.79 299.032 349.51 298.355 348.206C297.72 346.884 297.122 345.502 296.478 344.102C295.88 342.683 295.341 341.206 294.76 339.719C293.712 336.7 292.651 333.567 291.833 330.313C291 327.065 290.229 323.751 289.629 320.406C289.019 317.057 288.567 313.691 288.161 310.374C287.778 307.058 287.543 303.777 287.366 300.607C287.17 297.435 287.129 294.364 287.118 291.454C287.097 288.548 287.181 285.801 287.294 283.266C287.511 278.197 287.986 273.994 288.309 271.059C288.668 268.131 288.986 266.471 288.986 266.471Z" fill="#B76A6A"/>
<path d="M300.816 266.471C300.816 266.471 300.92 268.038 301.097 270.779C301.194 272.144 301.312 273.806 301.448 275.709C301.601 277.608 301.77 279.751 301.957 282.088C302.178 284.422 302.417 286.95 302.669 289.62C302.938 292.291 303.24 295.098 303.591 298C303.885 300.909 304.357 303.888 304.756 306.927C305.108 309.973 305.72 313.027 306.192 316.102C306.706 319.169 307.329 322.212 307.894 325.219C308.63 328.187 309.181 331.149 309.905 333.972C310.715 336.762 311.338 339.514 312.126 342.064C312.946 344.606 313.722 347.009 314.439 349.228C315.281 351.403 316.052 353.399 316.736 355.168C316.905 355.615 317.072 356.044 317.228 356.457C317.419 356.86 317.603 357.243 317.777 357.614C318.127 358.359 318.448 359.044 318.737 359.661C319.879 362.162 320.531 363.592 320.531 363.592C320.531 363.592 319.669 362.28 318.162 359.978C317.791 359.395 317.377 358.753 316.929 358.051C316.707 357.7 316.475 357.332 316.232 356.954C316.028 356.554 315.815 356.141 315.597 355.713C314.721 354.006 313.73 352.069 312.684 349.938C311.739 347.766 310.793 345.379 309.794 342.849C308.835 340.304 308.01 337.56 307.106 334.734C306.288 331.89 305.535 328.92 304.786 325.901C304.176 322.855 303.499 319.767 302.946 316.661C302.504 313.538 301.923 310.432 301.604 307.347C301.212 304.269 300.922 301.229 300.708 298.282C300.433 295.343 300.33 292.489 300.22 289.786C300.07 287.086 300.107 284.526 300.07 282.169C300.077 272.729 300.816 266.471 300.816 266.471Z" fill="#B76A6A"/>
<path d="M318.89 270.723C318.89 270.723 319.224 276.553 319.721 285.295C319.973 289.653 320.267 294.739 320.582 300.185C320.761 302.903 320.95 305.711 321.139 308.567C321.336 311.419 321.551 314.312 321.823 317.205C322.05 320.097 322.314 322.985 322.626 325.82C322.949 328.651 323.233 331.447 323.601 334.135C323.974 336.823 324.348 339.415 324.753 341.871C325.188 344.314 325.628 346.619 326.08 348.744C326.574 350.852 327.051 352.778 327.539 354.474C328.068 356.151 328.501 357.636 328.985 358.804C329.418 360.002 329.825 360.914 330.116 361.534C330.396 362.159 330.549 362.491 330.549 362.491C330.549 362.491 330.342 362.189 329.959 361.621C329.573 361.052 328.98 360.225 328.39 359.079C327.735 357.964 327.075 356.546 326.351 354.896C326.015 354.061 325.659 353.174 325.284 352.24C324.956 351.286 324.614 350.283 324.254 349.236C323.935 348.176 323.601 347.076 323.258 345.933C322.962 344.781 322.658 343.586 322.344 342.362C321.769 339.897 321.193 337.293 320.735 334.577C320.279 331.862 319.794 329.053 319.468 326.183C319.115 323.315 318.804 320.399 318.544 317.479C318.309 314.559 318.129 311.633 317.971 308.755C317.806 305.877 317.758 303.04 317.69 300.298C317.593 294.813 317.667 289.692 317.84 285.309C318.154 276.543 318.89 270.723 318.89 270.723Z" fill="#B76A6A"/>
<path d="M412.081 266.471C412.081 266.471 412.094 268.156 412.118 271.104C412.16 274.046 412.044 278.251 411.888 283.278C411.708 288.306 411.377 294.159 410.814 300.399C410.556 303.52 410.144 306.732 409.753 309.993C409.314 313.246 408.834 316.545 408.199 319.816C407.641 323.097 406.928 326.351 406.151 329.53C405.776 331.122 405.307 332.675 404.921 334.229C404.489 335.778 404.007 337.281 403.562 338.773C403.051 340.245 402.552 341.69 402.062 343.104C401.519 344.497 401.013 345.876 400.471 347.193C399.891 348.499 399.326 349.765 398.782 350.995C398.189 352.198 397.616 353.364 397.067 354.479C395.842 356.648 394.747 358.663 393.616 360.354C392.578 362.112 391.424 363.468 390.587 364.674C388.751 366.95 387.662 368.257 387.662 368.257C387.662 368.257 387.978 367.973 388.563 367.444C389.131 366.9 390.048 366.166 391.071 365.097C392.04 363.983 393.364 362.732 394.607 361.074C395.237 360.257 395.978 359.424 396.637 358.466C397.294 357.502 397.981 356.485 398.7 355.425C399.353 354.332 400.037 353.183 400.744 351.996C401.41 350.79 402.035 349.51 402.708 348.206C403.345 346.884 403.941 345.502 404.585 344.102C405.181 342.683 405.722 341.206 406.305 339.719C407.352 336.7 408.415 333.567 409.23 330.313C410.063 327.065 410.833 323.751 411.436 320.406C412.044 317.057 412.498 313.691 412.901 310.374C413.287 307.058 413.521 303.777 413.701 300.607C413.897 297.435 413.936 294.364 413.946 291.454C413.968 288.548 413.882 285.801 413.768 283.266C413.554 278.197 413.076 273.994 412.755 271.059C412.397 268.131 412.081 266.471 412.081 266.471Z" fill="#B76A6A"/>
<path d="M400.25 266.471C400.25 266.471 400.146 268.038 399.97 270.779C399.872 272.144 399.755 273.806 399.62 275.709C399.467 277.608 399.296 279.751 399.108 282.088C398.889 284.422 398.649 286.95 398.396 289.62C398.128 292.291 397.824 295.098 397.475 298C397.177 300.909 396.709 303.888 396.309 306.927C395.958 309.973 395.348 313.027 394.873 316.102C394.357 319.169 393.737 322.212 393.169 325.219C392.437 328.187 391.882 331.149 391.16 333.972C390.35 336.762 389.725 339.514 388.939 342.064C388.119 344.606 387.341 347.009 386.627 349.228C385.785 351.403 385.013 353.399 384.331 355.168C384.157 355.615 383.996 356.044 383.835 356.457C383.645 356.86 383.462 357.243 383.287 357.614C382.938 358.359 382.617 359.044 382.328 359.661C381.186 362.162 380.535 363.592 380.535 363.592C380.535 363.592 381.397 362.28 382.901 359.978C383.274 359.395 383.689 358.753 384.134 358.051C384.359 357.7 384.591 357.332 384.831 356.954C385.034 356.554 385.246 356.141 385.465 355.713C386.343 354.006 387.333 352.069 388.378 349.938C389.323 347.766 390.268 345.379 391.269 342.849C392.228 340.304 393.055 337.56 393.959 334.734C394.775 331.89 395.529 328.92 396.277 325.901C396.889 322.855 397.564 319.767 398.117 316.661C398.562 313.538 399.14 310.432 399.462 307.347C399.85 304.269 400.143 301.229 400.354 298.282C400.632 295.343 400.732 292.489 400.843 289.786C400.991 287.086 400.956 284.526 400.991 282.169C400.988 272.729 400.25 266.471 400.25 266.471Z" fill="#B76A6A"/>
<path d="M382.179 270.723C382.179 270.723 381.843 276.553 381.345 285.295C381.093 289.653 380.799 294.739 380.485 300.185C380.305 302.903 380.116 305.711 379.927 308.567C379.731 311.419 379.514 314.312 379.242 317.205C379.019 320.097 378.753 322.985 378.441 325.82C378.12 328.651 377.834 331.447 377.468 334.135C377.092 336.823 376.719 339.415 376.315 341.871C375.879 344.314 375.44 346.619 374.987 348.744C374.494 350.852 374.017 352.778 373.528 354.474C372.999 356.151 372.566 357.636 372.085 358.804C371.648 360.002 371.242 360.914 370.953 361.534C370.669 362.159 370.518 362.491 370.518 362.491C370.518 362.491 370.724 362.189 371.107 361.621C371.491 361.052 372.087 360.225 372.677 359.079C373.332 357.964 373.99 356.546 374.716 354.896C375.052 354.061 375.407 353.174 375.785 352.24C376.111 351.286 376.455 350.283 376.814 349.236C377.132 348.176 377.466 347.076 377.812 345.933C378.105 344.781 378.41 343.586 378.725 342.362C379.301 339.897 379.875 337.293 380.336 334.577C380.791 331.862 381.275 329.053 381.601 326.183C381.955 323.315 382.266 320.399 382.525 317.479C382.762 314.559 382.94 311.633 383.101 308.755C383.266 305.877 383.314 303.04 383.377 300.298C383.477 294.813 383.403 289.692 383.229 285.309C382.911 276.543 382.179 270.723 382.179 270.723Z" fill="#B76A6A"/>
</g>
<path d="M367.137 299.234H350.536H333.92L319.731 356.874L350.536 399.589L381.335 353.342L367.137 299.234Z" fill="#FFAE8A"/>
<path d="M367.137 299.234H350.535H333.92L330.461 313.281C340.282 323.161 360.689 329.701 373.273 322.62L367.137 299.234Z" fill="#F79B77"/>
<path d="M291.616 242.462C291.616 242.462 281.617 226.375 275.616 234.022C269.61 241.669 279.28 260.107 291.616 256.966V242.462Z" fill="#FFAE8A"/>
<path d="M409.458 242.462C409.458 242.462 419.449 226.375 425.444 234.022C431.448 241.669 421.778 260.107 409.458 256.966V242.462Z" fill="#FFAE8A"/>
<path d="M350.739 155.032C282.738 155.032 288.077 241.911 289.406 263.086C290.738 284.269 303.736 291.547 320.738 304.888C337.736 318.217 350.739 316.812 350.739 316.812C350.739 316.812 363.742 318.217 380.742 304.888C397.735 291.548 410.735 284.269 412.061 263.086C413.405 241.911 418.747 155.032 350.739 155.032Z" fill="#FFAE8A"/>
<path opacity="0.5" d="M412.361 232.004C412.781 243.413 412.182 253.081 411.839 258.479C410.513 279.662 397.517 286.94 380.519 300.278C363.519 313.609 350.515 312.206 350.515 312.206C350.515 312.206 337.511 313.609 320.514 300.278C303.512 286.94 290.518 279.662 289.184 258.479C289.117 257.399 289.036 256.141 288.959 254.738C289.095 258.091 289.271 260.934 289.407 263.088C290.739 284.271 303.738 291.548 320.739 304.889C337.737 318.218 350.741 316.814 350.741 316.814C350.741 316.814 363.744 318.218 380.744 304.889C397.737 291.55 410.737 284.271 412.062 263.088C412.449 256.977 413.166 245.39 412.361 232.004Z" fill="#FFBCA1"/>
<path d="M436.661 344.386L375.255 330.18C375.255 349.411 353.612 349.355 351.866 349.004V348.979C351.866 348.979 351.843 348.983 351.804 348.989C351.767 348.983 351.742 348.979 351.742 348.979V349.004C349.995 349.355 326.303 349.411 326.303 330.18L266.949 344.386L279.609 402.971C279.609 402.971 263.305 438.681 291.714 463.933L296.929 551.016H351.742H351.866H408.474L411.891 463.933C440.296 438.681 423.997 402.971 423.997 402.971L436.661 344.386Z" fill="#FAC849"/>
<path d="M351.723 354.935V354.903C351.723 354.903 351.754 354.91 351.804 354.92C351.853 354.91 351.883 354.903 351.883 354.903V354.935C354.074 355.377 381.07 355.44 381.399 331.6L375.255 330.178C375.255 349.409 353.612 349.354 351.866 349.003V348.978C351.866 348.978 351.843 348.981 351.804 348.988C351.767 348.981 351.742 348.978 351.742 348.978V349.003C349.995 349.354 326.303 349.409 326.303 330.178L319.629 331.774C320.136 355.437 349.536 355.377 351.723 354.935Z" fill="#F9B212"/>
<path d="M367.892 233.552C367.892 233.552 367.47 228.639 369.155 227.66C370.84 226.674 385.794 226.183 391.271 227.66C396.744 229.131 399.059 235.942 399.059 235.942C399.059 235.942 397.082 233.11 388.648 232.233C382.461 231.593 369.995 234.534 367.892 233.552Z" fill="#AA6868"/>
<path d="M333.588 233.552C333.588 233.552 334.01 228.639 332.325 227.66C330.645 226.674 315.689 226.183 310.216 227.66C304.737 229.131 302.416 235.942 302.416 235.942C302.416 235.942 304.398 233.11 312.828 232.233C319.022 231.593 331.485 234.534 333.588 233.552Z" fill="#AA6868"/>
<path d="M387.538 250.229C387.538 253.848 385.552 256.784 383.096 256.784C380.645 256.784 378.656 253.848 378.656 250.229C378.656 246.612 380.645 243.68 383.096 243.68C385.554 243.68 387.538 246.612 387.538 250.229Z" fill="#111B24"/>
<path d="M323.77 250.229C323.77 253.848 321.781 256.784 319.33 256.784C316.879 256.784 314.891 253.848 314.891 250.229C314.891 246.612 316.879 243.68 319.33 243.68C321.781 243.68 323.77 246.612 323.77 250.229Z" fill="#111B24"/>
<path d="M331.1 283.946C331.1 283.946 336.892 297.677 350.735 297.677C364.572 297.677 370.338 283.946 370.338 283.946C370.338 283.946 354.169 291.181 331.1 283.946Z" fill="#F4472A"/>
<path d="M331.143 284.041C331.143 284.041 340.677 291.906 350.994 291.906C361.311 291.906 370.116 284.041 370.116 284.041C370.116 284.041 353.936 293.15 331.143 284.041Z" fill="white"/>
<path d="M370.885 283.575C370.885 283.575 357.24 282.739 354.608 283.575C352.002 284.403 351.858 284.476 350.997 284.476C350.085 284.476 349.984 284.405 347.385 283.575C344.746 282.739 331.101 283.575 331.101 283.575C347.157 291.589 367.927 286.586 370.885 283.575Z" fill="#F4472A"/>
<path d="M327.893 282.525C341.516 289.558 360.105 290.035 373.589 282.525C373.893 282.356 373.595 281.964 373.283 282.137C359.969 289.556 341.655 289.084 328.193 282.137C327.874 281.971 327.575 282.364 327.893 282.525Z" fill="#F4472A"/>
<path d="M343.638 270.723C343.638 270.723 344.627 271.061 346.114 271.567C346.826 271.773 347.603 272.032 348.409 272.207C348.809 272.302 349.219 272.363 349.622 272.437C350.03 272.46 350.43 272.559 350.832 272.526C351.231 272.575 351.625 272.519 352.018 272.494C352.418 272.506 352.79 272.354 353.187 272.323C353.575 272.26 353.941 272.104 354.323 272.023C354.709 271.953 355.042 271.76 355.391 271.659C355.724 271.525 356.073 271.442 356.344 271.298C356.618 271.163 356.885 271.066 357.103 270.979C357.548 270.809 357.836 270.721 357.836 270.721C357.836 270.721 357.76 270.989 357.567 271.441C357.362 271.876 357.103 272.563 356.518 273.178C356.229 273.488 355.967 273.898 355.547 274.177C355.141 274.465 354.726 274.822 354.212 275.056C353.688 275.257 353.162 275.568 352.555 275.642C351.961 275.775 351.346 275.852 350.729 275.817C350.108 275.82 349.514 275.686 348.935 275.55C348.372 275.385 347.828 275.173 347.349 274.916C346.373 274.409 345.615 273.749 345.057 273.122C343.925 271.871 343.638 270.723 343.638 270.723Z" fill="#F89675"/>
<g opacity="0.1">
<path d="M321.099 268.207C321.099 274.218 315.562 279.091 308.729 279.091C301.896 279.091 296.359 274.218 296.359 268.207C296.359 262.194 301.896 257.32 308.729 257.32C315.562 257.32 321.099 262.195 321.099 268.207Z" fill="#F4472A"/>
<path d="M406.702 268.206C406.702 274.218 401.163 279.091 394.332 279.091C387.501 279.091 381.964 274.218 381.964 268.206C381.964 262.194 387.501 257.32 394.332 257.32C401.163 257.32 406.702 262.195 406.702 268.206Z" fill="#F4472A"/>
</g>
<path d="M436.367 344.386C436.367 344.386 458.309 351.916 468.831 376.936C479.353 401.955 505.084 477.356 500.895 494.114C496.396 512.116 409.332 546.781 409.332 546.781L396.164 524.04C396.164 524.04 450.027 486.336 459.001 479.156L423.997 402.971L436.367 344.386Z" fill="#F4B425"/>
<path d="M267.16 344.386C267.16 344.386 245.216 351.916 234.696 376.936C224.173 401.955 198.44 477.356 202.628 494.114C207.127 512.116 294.193 546.781 294.193 546.781L307.361 524.04C307.361 524.04 253.5 486.336 244.522 479.156L279.607 402.971L267.16 344.386Z" fill="#F4B425"/>
<path d="M381.016 462.772C369.131 459.091 357.889 455.978 351.767 455.978C345.638 455.978 334.401 459.09 322.513 462.772C310.622 466.453 302.131 464.476 302.131 464.476C310.572 469.704 322.249 470.435 333.835 466.174C344.057 462.409 351.767 462.497 351.767 462.497C351.767 462.497 359.371 462.693 369.694 466.174C381.495 470.151 392.956 469.706 401.394 464.476C401.392 464.476 392.905 466.453 381.016 462.772Z" fill="#F4B425"/>
<path d="M425.331 237.212C422.794 234.998 420.704 235.201 419.011 236.628C418.811 236.727 418.653 236.873 418.554 237.053C415.592 240.058 413.972 246.8 413.458 249.958C413.248 251.257 415.232 251.815 415.444 250.506C415.797 248.334 417.062 241.95 419.37 239.104C420.724 241.567 420.86 244.508 419.325 247.023C418.633 248.159 420.412 249.191 421.104 248.06C423.043 244.881 422.883 240.947 421.011 237.844C421.863 237.55 422.814 237.741 423.874 238.667C424.87 239.534 426.332 238.086 425.331 237.212Z" fill="#F4885D"/>
<path d="M276.926 237.212C279.461 234.998 281.555 235.201 283.245 236.628C283.446 236.727 283.603 236.873 283.703 237.053C286.664 240.058 288.285 246.8 288.797 249.958C289.009 251.257 287.025 251.815 286.813 250.506C286.462 248.334 285.195 241.95 282.889 239.104C281.535 241.567 281.398 244.508 282.934 247.023C283.628 248.159 281.845 249.191 281.155 248.06C279.216 244.881 279.377 240.947 281.247 237.844C280.394 237.55 279.443 237.741 278.383 238.667C277.387 239.534 275.925 238.086 276.926 237.212Z" fill="#F4885D"/>
<path d="M399.215 529.307C399.215 529.307 380.295 529.023 377.278 531.767C374.26 534.512 365.205 551.248 366.579 552.894C367.95 554.541 389.352 550.697 394.835 548.504C400.324 546.31 407.587 543.767 407.587 543.767L399.215 529.307Z" fill="#FFAE8A"/>
<path d="M303.551 529.307C303.551 529.307 322.469 529.023 325.487 531.767C328.506 534.512 337.559 551.248 336.187 552.894C334.814 554.541 313.414 550.697 307.927 548.504C302.442 546.31 295.18 543.767 295.18 543.767L303.551 529.307Z" fill="#FFAE8A"/>
<path d="M288.826 238.605C288.826 238.605 321.505 221.753 330.461 189.651C330.461 189.651 357.207 234.884 412.647 238.605C412.647 238.605 417.972 231.215 423.962 232.656C423.962 232.656 427.765 145.756 350.532 145.756C273.297 145.756 279.893 231.989 279.893 231.989C279.893 231.989 284.137 233.207 288.826 238.605Z" fill="#814C4A"/>
<g opacity="0.2">
<path d="M340.516 175.662C340.516 175.662 341.281 176.633 342.69 178.256C344.1 179.879 346.126 182.17 348.676 184.796C349.926 186.13 351.366 187.496 352.844 188.969C354.334 190.434 355.997 191.882 357.654 193.436C359.396 194.9 361.123 196.492 363.015 197.949C363.944 198.697 364.879 199.448 365.822 200.202C366.771 200.943 367.777 201.62 368.754 202.332C369.736 203.038 370.681 203.799 371.685 204.464C372.695 205.123 373.698 205.778 374.696 206.431C376.665 207.775 378.704 208.928 380.663 210.079C382.597 211.276 384.577 212.221 386.425 213.19C387.356 213.667 388.258 214.134 389.132 214.584C390.029 214.982 390.898 215.367 391.731 215.735C393.411 216.447 394.918 217.212 396.301 217.761C397.697 218.287 398.915 218.747 399.914 219.127C401.92 219.927 403.068 220.384 403.068 220.384C403.068 220.384 401.856 220.177 399.736 219.755C398.674 219.534 397.384 219.268 395.907 218.957C394.439 218.606 392.828 218.055 391.049 217.499C390.16 217.217 389.234 216.92 388.277 216.614C387.338 216.259 386.392 215.834 385.404 215.424C383.44 214.584 381.315 213.788 379.285 212.629C377.233 211.523 375.033 210.5 373.002 209.119C371.966 208.464 370.919 207.802 369.869 207.142C368.826 206.472 367.836 205.711 366.818 204.993C365.824 204.242 364.801 203.532 363.836 202.752C362.882 201.961 361.928 201.175 360.987 200.392C360.029 199.631 359.117 198.826 358.259 197.984C357.385 197.159 356.525 196.345 355.678 195.545C354.032 193.895 352.478 192.265 351.075 190.659C349.667 189.057 348.368 187.514 347.251 186.023C346.085 184.578 345.131 183.158 344.268 181.927C343.421 180.679 342.72 179.566 342.164 178.636C341.047 176.779 340.516 175.662 340.516 175.662Z" fill="#B76A6A"/>
<path d="M348.472 164.139C348.472 164.139 351.701 167.042 356.632 171.175C357.872 172.2 359.214 173.31 360.634 174.484C362.067 175.635 363.579 176.848 365.146 178.103C368.332 180.532 371.685 183.178 375.198 185.598L377.788 187.471C378.67 188.059 379.551 188.647 380.421 189.228C382.16 190.406 383.88 191.548 385.58 192.601C387.26 193.69 388.91 194.695 390.494 195.625C392.072 196.57 393.555 197.477 394.973 198.229C396.374 199.019 397.663 199.745 398.802 200.388C399.966 200.988 400.982 201.514 401.819 201.946C403.487 202.831 404.438 203.37 404.438 203.37C404.438 203.37 403.395 203.093 401.574 202.552C400.663 202.272 399.563 201.931 398.295 201.537C397.053 201.087 395.662 200.543 394.148 199.931C393.394 199.619 392.591 199.323 391.791 198.965C390.997 198.586 390.177 198.193 389.333 197.789C387.643 196.986 385.861 196.135 384.104 195.095C382.324 194.093 380.463 193.09 378.686 191.889C377.785 191.311 376.876 190.727 375.962 190.14L373.286 188.277C371.504 187.024 369.798 185.675 368.105 184.363C366.393 183.073 364.854 181.628 363.288 180.322C360.258 177.594 357.524 174.951 355.335 172.537C353.108 170.165 351.396 168.05 350.23 166.551C349.067 165.048 348.472 164.139 348.472 164.139Z" fill="#B76A6A"/>
<path d="M353.412 155.359C353.412 155.359 357.718 155.462 363.991 156.975C365.55 157.382 367.257 157.765 369.006 158.371C369.886 158.655 370.791 158.946 371.715 159.247C372.621 159.596 373.55 159.954 374.491 160.317C376.389 161.017 378.269 161.95 380.196 162.85C382.078 163.85 383.984 164.885 385.841 166.002L388.536 167.825L389.875 168.734L391.136 169.737C392.813 171.067 394.458 172.383 395.862 173.875C396.579 174.6 397.304 175.292 397.979 176.003C398.684 176.682 399.212 177.507 399.815 178.219C400.954 179.699 402.123 181.018 402.883 182.473C403.728 183.865 404.464 185.156 405.11 186.293C405.655 187.491 406.056 188.569 406.409 189.44C407.098 191.187 407.459 192.183 407.459 192.183C407.459 192.183 406.843 191.293 405.828 189.737C405.329 188.961 404.722 188.022 404.032 186.943C403.219 185.944 402.307 184.82 401.354 183.585C400.46 182.3 399.163 181.171 397.972 179.847C396.803 178.5 395.338 177.302 393.893 176.005C392.507 174.641 390.812 173.539 389.218 172.268L388.001 171.333L386.703 170.489L384.099 168.794C382.338 167.69 380.525 166.664 378.735 165.671C376.881 164.792 375.151 163.726 373.343 162.97C372.451 162.56 371.576 162.153 370.719 161.755C369.846 161.387 368.999 161.023 368.169 160.67C366.512 159.951 364.908 159.368 363.441 158.775C360.478 157.679 357.98 156.796 356.206 156.238C354.44 155.652 353.412 155.359 353.412 155.359Z" fill="#B76A6A"/>
<path d="M326.525 175.662C326.525 175.662 326.345 176.635 325.877 178.3C325.403 179.96 324.667 182.325 323.538 185.067C322.459 187.834 320.956 190.957 319.188 194.224C318.229 195.814 317.367 197.541 316.252 199.145C315.185 200.781 314.096 202.441 312.904 204.031C312.304 204.822 311.719 205.625 311.106 206.398C310.473 207.157 309.843 207.915 309.218 208.667C308.011 210.211 306.627 211.555 305.347 212.906C304.099 214.287 302.728 215.461 301.456 216.597C300.819 217.161 300.201 217.712 299.601 218.245C298.963 218.729 298.346 219.199 297.753 219.653C296.569 220.552 295.489 221.372 294.491 222.045C293.463 222.677 292.567 223.228 291.831 223.685C290.348 224.569 289.491 225.047 289.491 225.047C289.491 225.047 290.192 224.342 291.44 223.159C292.065 222.579 292.828 221.876 293.699 221.067C294.534 220.226 295.477 219.273 296.505 218.235C297.017 217.721 297.553 217.187 298.106 216.632C298.634 216.053 299.18 215.456 299.742 214.841C300.868 213.618 302.064 212.343 303.217 210.947C304.401 209.58 305.601 208.15 306.768 206.651C307.361 205.91 307.958 205.163 308.556 204.414L310.259 202.08C311.447 200.56 312.539 198.97 313.607 197.398C314.705 195.847 315.696 194.258 316.707 192.753C317.641 191.2 318.621 189.74 319.467 188.304C320.304 186.866 321.137 185.522 321.85 184.25C324.751 179.192 326.525 175.662 326.525 175.662Z" fill="#B76A6A"/>
<path d="M333.635 158.378C333.635 158.378 333.391 158.439 332.949 158.59C332.501 158.719 331.865 158.99 331.054 159.279C330.256 159.625 329.278 159.988 328.203 160.524C327.111 161.009 325.933 161.669 324.648 162.363C323.995 162.686 323.375 163.143 322.703 163.548C322.043 163.974 321.329 164.356 320.665 164.868C319.99 165.352 319.292 165.849 318.583 166.358C317.905 166.906 317.211 167.467 316.509 168.035C315.049 169.11 313.806 170.53 312.388 171.786C311.065 173.145 309.777 174.587 308.532 176.054C307.383 177.604 306.086 179.049 305.059 180.658C304.08 182.29 302.897 183.771 302.027 185.376C301.169 186.982 300.282 188.516 299.445 189.977C298.724 191.499 298.042 192.943 297.412 194.271C297.09 194.935 296.78 195.575 296.486 196.182C296.209 196.798 295.989 197.4 295.759 197.956C295.299 199.073 294.894 200.049 294.563 200.849C293.879 202.456 293.454 203.372 293.454 203.372C293.454 203.372 293.609 202.389 293.936 200.667C294.109 199.805 294.321 198.762 294.563 197.561C294.699 196.964 294.815 196.318 294.986 195.651C295.196 194.999 295.418 194.31 295.648 193.593C296.117 192.158 296.607 190.589 297.212 188.959C297.921 187.377 298.664 185.693 299.489 183.98C299.86 183.101 300.402 182.291 300.886 181.44C301.38 180.59 301.891 179.738 302.422 178.888C303.47 177.177 304.802 175.613 305.999 173.96C307.348 172.426 308.742 170.923 310.175 169.51C311.689 168.179 313.14 166.825 314.736 165.752C315.522 165.204 316.26 164.614 317.048 164.136C317.846 163.675 318.625 163.222 319.386 162.783C320.902 161.91 322.436 161.253 323.835 160.666C325.258 160.109 326.572 159.65 327.773 159.349C328.949 158.98 330.024 158.832 330.884 158.652C332.63 158.377 333.635 158.378 333.635 158.378Z" fill="#B76A6A"/>
</g>
<path d="M284.992 220.671L275.117 220.627C275.12 219.816 276.355 139.446 351.874 139.446C427.179 139.446 428.051 219.839 428.051 220.651H418.174C418.167 217.744 417.252 149.325 351.874 149.325C324.306 149.325 304.708 161.202 293.625 184.632C285.17 202.497 284.994 220.493 284.992 220.671Z" fill="#098F8A"/>
<path opacity="0.5" d="M284.992 220.671C284.993 220.493 285.17 202.497 293.625 184.63C304.708 161.201 324.307 149.323 351.874 149.323C417.251 149.323 418.167 217.744 418.174 220.649H423.358C422.886 210.366 417.287 145.755 351.857 145.755C286.196 145.755 280.326 210.436 279.814 220.649L284.992 220.671Z" fill="#098F8A"/>
<path d="M416.927 259.449C407.906 267.165 398.883 274.883 389.863 282.601C387.675 284.472 390.444 287.995 392.645 286.114C401.663 278.397 410.685 270.678 419.708 262.96C421.895 261.09 419.128 257.564 416.927 259.449Z" fill="#098F8A"/>
<path d="M400.195 277.394C401.856 279.486 401.509 282.529 399.417 284.192L391.879 290.186C389.787 291.847 386.745 291.498 385.083 289.41C383.42 287.318 383.768 284.276 385.859 282.613L393.398 276.618C395.488 274.957 398.532 275.305 400.195 277.394Z" fill="#098F8A"/>
<path opacity="0.5" d="M400.195 277.394C399.059 275.968 397.283 275.377 395.603 275.657C395.867 275.876 396.116 276.116 396.334 276.391C397.997 278.483 397.651 281.526 395.558 283.189L388.018 289.183C387.356 289.71 386.595 290.011 385.816 290.146C387.538 291.552 390.064 291.629 391.879 290.188L399.417 284.193C401.508 282.528 401.856 279.486 400.195 277.394Z" fill="#098F8A"/>
<path d="M283.772 215.446H280.055V217.36C276.258 221.375 273.563 231.324 273.563 242.996C273.563 254.666 276.258 264.618 280.055 268.633V270.543H283.772C289.411 270.543 293.982 258.209 293.982 242.996C293.98 227.781 289.411 215.446 283.772 215.446Z" fill="#098F8A"/>
<path d="M280.055 215.446C279.139 215.446 278.255 215.802 277.41 216.414C273.565 218.443 266.883 224.611 266.883 242.996C266.883 259.536 272.29 265.975 276.175 268.474C277.372 269.801 278.68 270.542 280.055 270.542C285.694 270.542 290.264 258.207 290.264 242.995C290.264 227.781 285.693 215.446 280.055 215.446Z" fill="#098F8A"/>
<path opacity="0.2" d="M282.988 216.615C285.577 221.613 287.267 229.771 287.267 239.011C287.267 254.226 282.696 266.56 277.057 266.56C275.683 266.56 274.376 265.816 273.18 264.49C272.471 264.035 271.712 263.445 270.942 262.689C272.611 265.634 274.527 267.415 276.175 268.474C277.372 269.801 278.68 270.542 280.055 270.542C285.694 270.542 290.264 258.207 290.264 242.995C290.264 230.532 287.196 220.016 282.988 216.615Z" fill="#814C4A"/>
<path opacity="0.2" d="M276.486 222.848C276.486 222.848 276.372 223.349 276.172 224.222C275.989 225.091 275.739 226.291 275.478 227.707C275.364 228.424 275.206 229.167 275.09 229.976C274.952 230.773 274.823 231.609 274.706 232.478C274.556 233.333 274.487 234.245 274.346 235.141C274.244 236.05 274.143 236.972 274.04 237.898C273.956 238.83 273.872 239.759 273.788 240.676C273.746 241.6 273.639 242.509 273.58 243.4C273.538 244.288 273.474 245.155 273.4 245.987C273.35 246.825 273.299 247.618 273.256 248.349C273.101 249.837 273.068 251.092 272.955 251.996C272.864 252.9 272.77 253.436 272.77 253.436C272.77 253.436 272.545 252.991 272.226 252.174C271.918 251.354 271.441 250.175 271.114 248.673C270.942 247.926 270.751 247.107 270.608 246.227C270.487 245.345 270.374 244.406 270.284 243.427C270.21 242.449 270.198 241.422 270.191 240.384C270.188 239.346 270.297 238.292 270.359 237.236C270.495 236.191 270.628 235.141 270.826 234.129C271.052 233.123 271.251 232.13 271.561 231.213C271.831 230.281 272.155 229.415 272.498 228.616C272.821 227.813 273.21 227.102 273.553 226.453C274.289 225.18 275.018 224.249 275.566 223.666C276.122 223.088 276.486 222.848 276.486 222.848Z" fill="white"/>
<path d="M417.914 215.446H421.633V217.36C425.432 221.375 428.125 231.324 428.125 242.996C428.125 254.666 425.43 264.618 421.633 268.633V270.543H417.914C412.276 270.543 407.706 258.209 407.706 242.996C407.704 227.781 412.274 215.446 417.914 215.446Z" fill="#098F8A"/>
<path d="M421.631 215.446C422.547 215.446 423.429 215.802 424.274 216.414C428.118 218.443 434.801 224.611 434.801 242.996C434.801 259.536 429.395 265.975 425.511 268.474C424.314 269.801 423.006 270.542 421.631 270.542C415.993 270.542 411.422 258.207 411.422 242.995C411.422 227.781 415.993 215.446 421.631 215.446Z" fill="#098F8A"/>
<path opacity="0.2" d="M418.696 216.615C416.108 221.613 414.418 229.771 414.418 239.011C414.418 254.226 418.989 266.56 424.625 266.56C425.998 266.56 427.308 265.816 428.504 264.49C429.213 264.035 429.973 263.445 430.74 262.689C429.076 265.634 427.155 267.415 425.511 268.474C424.314 269.801 423.006 270.542 421.631 270.542C415.993 270.542 411.422 258.207 411.422 242.995C411.422 230.532 414.488 220.016 418.696 216.615Z" fill="#814C4A"/>
<path opacity="0.2" d="M425.198 222.848C425.198 222.848 425.311 223.349 425.514 224.222C425.695 225.091 425.947 226.291 426.203 227.707C426.319 228.424 426.477 229.167 426.593 229.976C426.73 230.773 426.858 231.609 426.977 232.478C427.125 233.333 427.196 234.245 427.337 235.141C427.438 236.05 427.542 236.972 427.641 237.898C427.728 238.83 427.812 239.759 427.893 240.676C427.935 241.6 428.041 242.509 428.103 243.4C428.143 244.288 428.209 245.155 428.283 245.987C428.333 246.825 428.385 247.618 428.43 248.349C428.583 249.837 428.615 251.092 428.731 251.996C428.82 252.9 428.913 253.436 428.913 253.436C428.913 253.436 429.138 252.991 429.455 252.174C429.766 251.354 430.243 250.175 430.571 248.673C430.739 247.926 430.932 247.107 431.076 246.227C431.194 245.345 431.308 244.406 431.399 243.427C431.471 242.449 431.486 241.422 431.493 240.384C431.495 239.346 431.387 238.292 431.322 237.236C431.187 236.191 431.055 235.141 430.858 234.129C430.631 233.123 430.433 232.13 430.124 231.213C429.852 230.281 429.528 229.415 429.186 228.616C428.864 227.813 428.474 227.102 428.13 226.453C427.394 225.18 426.663 224.249 426.117 223.666C425.564 223.088 425.198 222.848 425.198 222.848Z" fill="white"/>
<path d="M645.579 564.911H57.9485V593.762H645.579V564.911Z" fill="#098F8A" fill-opacity="0.71"/>
<path d="M672.334 572.759C672.334 577.074 668.633 580.606 664.106 580.606H39.4229C34.897 580.606 31.1926 577.074 31.1926 572.759C31.1926 568.443 34.897 564.911 39.4229 564.911H664.106C668.633 564.911 672.334 568.441 672.334 572.759Z" fill="#098F8A"/>
<path d="M497.171 557.966C497.171 561.802 494.056 564.911 490.221 564.911H213.303C209.468 564.911 206.358 561.802 206.358 557.966C206.358 554.131 209.468 551.016 213.303 551.016H490.221C494.058 551.016 497.171 554.131 497.171 557.966Z" fill="#006A66"/>
<path d="M475.222 540.125C475.222 547.367 469.297 553.296 462.052 553.296H241.475C234.231 553.296 228.306 547.369 228.306 540.125V419.284C228.306 412.041 234.231 406.116 241.475 406.116H462.052C469.295 406.116 475.222 412.04 475.222 419.284V540.125Z" fill="#098F8A"/>
<path d="M361.504 478.682C361.504 484.061 357.141 488.424 351.765 488.424C346.383 488.424 342.023 484.061 342.023 478.682C342.023 473.306 346.384 468.943 351.765 468.943C357.143 468.943 361.504 473.304 361.504 478.682Z" fill="#5D93F4"/>
<path opacity="0.6" d="M462.052 406.116H414.545C411.767 495.534 290.069 537.645 235.83 551.995C237.545 552.817 239.456 553.294 241.475 553.294H462.052C469.295 553.294 475.222 547.367 475.222 540.123V419.282C475.222 412.041 469.295 406.116 462.052 406.116Z" fill="#114068"/>
<path d="M169.803 131.401H96.0843C87.1501 131.401 79.9093 138.643 79.9093 147.577V199.78C79.9093 208.713 87.1501 215.955 96.0843 215.955H132.07L152.677 231.047V215.955H169.803C178.735 215.955 185.979 208.713 185.979 199.78V147.577C185.978 138.643 178.735 131.401 169.803 131.401Z" fill="#098F8A"/>
<path d="M135.601 152.014C135.601 153.38 134.496 154.486 133.13 154.486H95.387C94.0211 154.486 92.9174 153.38 92.9174 152.014C92.9174 150.648 94.0228 149.543 95.387 149.543H133.132C134.496 149.543 135.601 150.648 135.601 152.014Z" fill="white"/>
<path d="M176.04 165.493C176.04 166.859 174.935 167.964 173.569 167.964H95.387C94.0211 167.964 92.9174 166.859 92.9174 165.493C92.9174 164.127 94.0228 163.022 95.387 163.022H173.571C174.935 163.022 176.04 164.129 176.04 165.493Z" fill="white"/>
<path d="M176.04 178.973C176.04 180.339 174.935 181.443 173.569 181.443H95.387C94.0211 181.443 92.9174 180.337 92.9174 178.973C92.9174 177.607 94.0228 176.502 95.387 176.502H173.571C174.935 176.502 176.04 177.607 176.04 178.973Z" fill="white"/>
<path d="M162.562 192.454C162.562 193.819 161.455 194.925 160.09 194.925H95.387C94.0211 194.925 92.9174 193.819 92.9174 192.454C92.9174 191.088 94.0228 189.982 95.387 189.982H160.09C161.455 189.982 162.562 191.088 162.562 192.454Z" fill="white"/>
<path opacity="0.1" d="M169.803 131.401H168.479C169.156 175.035 135.059 201.858 108.97 215.955H132.068L152.675 229.4V215.955H169.801C178.734 215.955 185.978 208.713 185.978 199.78V147.577C185.978 138.643 178.735 131.401 169.803 131.401Z" fill="#098F8A"/>
<path d="M154.219 339.059H81.7522V384.182H154.219V339.059Z" fill="#FAC849"/>
<path d="M81.7522 339.059H154.221L117.988 370.609L81.7522 339.059Z" fill="#F4B425"/>
<mask id="mask0_18_274" style="mask-type:luminance" maskUnits="userSpaceOnUse" x="81" y="339" width="74" height="46">
<path d="M154.219 339.059H81.7522V384.182H154.219V339.059Z" fill="white"/>
</mask>
<g mask="url(#mask0_18_274)">
<path d="M82.9551 385.643C91.135 374.759 99.3183 363.874 107.498 352.991C108.972 351.032 106.578 348.102 105.096 350.074C96.9142 360.959 88.7326 371.84 80.5527 382.724C79.0776 384.684 81.4733 387.611 82.9551 385.643Z" fill="#F4B425"/>
<path d="M154.871 382.722C146.686 371.841 138.506 360.958 130.328 350.073C128.846 348.101 126.447 351.03 127.924 352.989C136.107 363.872 144.289 374.757 152.469 385.642C153.949 387.616 156.346 384.684 154.871 382.722Z" fill="#F4B425"/>
</g>
<path opacity="0.1" d="M107.019 384.184H154.219V339.06H132.816C136.977 361.515 122.333 375.695 107.019 384.184Z" fill="#114068"/>
<path d="M547.336 264.361H482.273C477.959 264.361 474.462 267.86 474.462 272.176V297.388C474.462 301.704 477.959 305.203 482.273 305.203H514.383L524.335 317.262V305.203H547.336C551.652 305.203 555.148 301.704 555.148 297.388V272.176C555.148 267.859 551.652 264.361 547.336 264.361Z" fill="#FAC849"/>
<path d="M498.649 284.049C498.649 286.515 496.652 288.516 494.184 288.516C491.716 288.516 489.717 286.515 489.717 284.049C489.717 281.581 491.716 279.58 494.184 279.58C496.652 279.58 498.649 281.581 498.649 284.049Z" fill="white"/>
<path d="M519.271 284.049C519.271 286.515 517.272 288.516 514.806 288.516C512.336 288.516 510.339 286.515 510.339 284.049C510.339 281.581 512.336 279.58 514.806 279.58C517.27 279.58 519.271 281.581 519.271 284.049Z" fill="white"/>
<path d="M539.89 284.049C539.89 286.515 537.891 288.516 535.425 288.516C532.957 288.516 530.958 286.515 530.958 284.049C530.958 281.581 532.957 279.58 535.425 279.58C537.891 279.58 539.89 281.581 539.89 284.049Z" fill="white"/>
<path opacity="0.1" d="M547.336 264.361H537.78C539.196 287.34 516.628 299.253 497.463 305.203H514.382L524.335 317.262V305.203H547.336C551.651 305.203 555.147 301.704 555.147 297.388V272.176C555.147 267.859 551.651 264.361 547.336 264.361Z" fill="#114068"/>
<path d="M541.049 130.504C539.472 129.719 536.362 130.411 533.489 131.37C532.631 128.417 531.463 125.596 530.007 122.954C532.705 121.598 535.384 119.894 535.979 118.238C537.402 114.25 529.862 106.71 529.862 106.71C529.862 106.71 522.383 99.2304 518.332 100.595C516.664 101.154 514.957 103.84 513.603 106.547C510.961 105.092 508.138 103.921 505.185 103.066C506.134 100.198 506.828 97.0968 506.073 95.5075C504.259 91.6805 493.596 91.6805 493.596 91.6805C493.596 91.6805 483.019 91.6805 481.12 95.5075C480.337 97.085 481.028 100.195 481.987 103.066C479.032 103.923 476.211 105.092 473.57 106.548C472.215 103.852 470.511 101.171 468.855 100.579C464.865 99.1548 457.327 106.695 457.327 106.695C457.327 106.695 449.849 114.174 451.211 118.224C451.771 119.894 454.457 121.601 457.164 122.955C455.71 125.598 454.538 128.419 453.684 131.374C450.817 130.423 447.712 129.732 446.123 130.485C442.296 132.298 442.296 142.961 442.296 142.961C442.296 142.961 442.296 153.538 446.123 155.438C447.702 156.223 450.81 155.529 453.684 154.57C454.539 157.525 455.71 160.345 457.164 162.986C454.469 164.342 451.786 166.046 451.194 167.704C449.772 171.692 457.311 179.232 457.311 179.232C457.311 179.232 464.789 186.711 468.841 185.347C470.509 184.784 472.216 182.098 473.57 179.392C476.211 180.846 479.032 182.017 481.987 182.873C481.038 185.74 480.344 188.842 481.1 190.433C482.911 194.261 493.576 194.261 493.576 194.261C493.576 194.261 504.153 194.261 506.053 190.433C506.836 188.853 506.142 185.747 505.185 182.873C508.14 182.016 510.959 180.846 513.601 179.392C514.957 182.088 516.657 184.768 518.317 185.361C522.307 186.785 529.845 179.244 529.845 179.244C529.845 179.244 537.323 171.764 535.961 167.716C535.401 166.046 532.713 164.34 530.005 162.985C531.462 160.342 532.631 157.523 533.488 154.568C536.355 155.519 539.46 156.208 541.048 155.458C544.873 153.644 544.873 142.983 544.873 142.983C544.873 142.983 544.876 132.402 541.049 130.504ZM493.588 162.209C482.963 162.209 474.348 153.595 474.348 142.969C474.348 132.343 482.963 123.73 493.588 123.73C504.215 123.73 512.825 132.343 512.825 142.969C512.827 153.597 504.217 162.209 493.588 162.209Z" fill="#098F8A"/>
<g opacity="0.5">
<path d="M493.588 172.463C477.324 172.463 464.094 159.233 464.094 142.969C464.094 126.707 477.324 113.475 493.588 113.475C509.85 113.475 523.082 126.707 523.082 142.969C523.082 159.233 509.85 172.463 493.588 172.463ZM493.588 119.337C480.556 119.337 469.955 129.939 469.955 142.971C469.955 156.003 480.556 166.605 493.588 166.605C506.618 166.605 517.219 156.003 517.219 142.971C517.22 129.939 506.618 119.337 493.588 119.337Z" fill="#098F8A"/>
</g>
<path opacity="0.1" d="M468.844 185.347C470.513 184.784 472.219 182.098 473.574 179.392C476.215 180.846 479.035 182.017 481.99 182.873C481.041 185.74 480.347 188.842 481.103 190.433C482.914 194.261 493.579 194.261 493.579 194.261C493.579 194.261 504.156 194.261 506.056 190.433C506.839 188.853 506.145 185.747 505.188 182.873C508.143 182.016 510.962 180.846 513.605 179.392C514.96 182.088 516.661 184.768 518.32 185.361C522.31 186.785 529.849 179.244 529.849 179.244C529.849 179.244 537.326 171.764 535.964 167.716C535.404 166.046 532.716 164.34 530.008 162.985C531.465 160.342 532.634 157.523 533.491 154.568C536.359 155.519 539.463 156.208 541.051 155.458C544.876 153.644 544.876 142.983 544.876 142.983C544.876 142.983 544.876 132.404 541.051 130.505C539.473 129.721 536.364 130.413 533.491 131.372C532.632 128.419 531.465 125.598 530.008 122.955C532.706 121.6 535.386 119.896 535.981 118.24C537.403 114.251 529.864 106.711 529.864 106.711C529.864 106.711 529.069 105.922 527.868 104.904C524.577 116.944 518.811 127.379 511.647 136.387C512.398 138.443 512.828 140.654 512.828 142.971C512.828 153.597 504.218 162.21 493.591 162.21C490.686 162.21 487.941 161.547 485.47 160.396C475.217 167.485 464.616 172.925 455.287 176.974C456.409 178.318 457.316 179.232 457.316 179.232C457.316 179.232 464.792 186.71 468.844 185.347Z" fill="#098F8A"/>
<path d="M204.329 70.3209C203.527 69.9261 201.956 70.2756 200.502 70.7611C200.068 69.2659 199.475 67.8379 198.739 66.5006C200.107 65.8152 201.462 64.9517 201.76 64.1133C202.482 62.094 198.665 58.2753 198.665 58.2753C198.665 58.2753 194.879 54.4886 192.827 55.1791C191.982 55.4647 191.119 56.8238 190.433 58.1947C189.096 57.4589 187.668 56.8658 186.171 56.4324C186.652 54.9809 187.001 53.4101 186.62 52.6053C185.702 50.6666 180.305 50.6666 180.305 50.6666C180.305 50.6666 174.949 50.6666 173.986 52.6053C173.591 53.405 173.941 54.9792 174.426 56.4324C172.929 56.8675 171.501 57.4589 170.164 58.1964C169.479 56.8306 168.617 55.4731 167.779 55.1724C165.757 54.4517 161.94 58.2686 161.94 58.2686C161.94 58.2686 158.155 62.0553 158.846 64.1049C159.128 64.95 160.491 65.8152 161.86 66.5006C161.122 67.8379 160.531 69.2659 160.098 70.7611C158.644 70.2789 157.074 69.9312 156.269 70.3109C154.332 71.2281 154.332 76.6277 154.332 76.6277C154.332 76.6277 154.332 81.9835 156.269 82.9461C157.069 83.3409 158.641 82.9915 160.098 82.506C160.531 84.0012 161.122 85.4292 161.86 86.7681C160.494 87.4536 159.137 88.3171 158.838 89.1554C158.117 91.1748 161.934 94.9918 161.934 94.9918C161.934 94.9918 165.721 98.7785 167.772 98.088C168.617 97.8024 169.484 96.4433 170.167 95.0724C171.505 95.8082 172.933 96.4013 174.428 96.8347C173.947 98.2879 173.598 99.857 173.978 100.662C174.895 102.599 180.294 102.599 180.294 102.599C180.294 102.599 185.65 102.599 186.61 100.662C187.008 99.8621 186.657 98.2879 186.171 96.8347C187.668 96.4013 189.096 95.8082 190.433 95.0724C191.12 96.4382 191.981 97.7957 192.821 98.0947C194.842 98.8154 198.657 94.9985 198.657 94.9985C198.657 94.9985 202.445 91.2118 201.755 89.1605C201.471 88.3154 200.11 87.4502 198.741 86.7665C199.478 85.4292 200.071 83.9995 200.503 82.5043C201.955 82.9848 203.526 83.3359 204.33 82.9546C206.267 82.0373 206.267 76.6377 206.267 76.6377C206.267 76.6377 206.266 71.2853 204.329 70.3209ZM180.298 86.3733C174.918 86.3733 170.556 82.0138 170.556 76.6327C170.556 71.2533 174.918 66.8921 180.298 66.8921C185.679 66.8921 190.037 71.2533 190.037 76.6327C190.037 82.0138 185.679 86.3733 180.298 86.3733Z" fill="#FAC849"/>
<g opacity="0.5">
<path d="M180.298 91.5662C172.066 91.5662 165.366 84.868 165.366 76.6344C165.366 68.4024 172.066 61.7025 180.298 61.7025C188.531 61.7025 195.23 68.4007 195.23 76.6344C195.23 84.868 188.531 91.5662 180.298 91.5662ZM180.298 64.6677C173.699 64.6677 168.333 70.0353 168.333 76.6327C168.333 83.23 173.699 88.5993 180.298 88.5993C186.893 88.5993 192.264 83.23 192.264 76.6327C192.264 70.0353 186.895 64.6677 180.298 64.6677Z" fill="#F4B425"/>
</g>
<path opacity="0.1" d="M167.77 98.0896C168.615 97.804 169.482 96.4449 170.166 95.074C171.503 95.8099 172.931 96.4029 174.426 96.8363C173.946 98.2896 173.596 99.8587 173.976 100.663C174.893 102.6 180.293 102.6 180.293 102.6C180.293 102.6 185.649 102.6 186.608 100.663C187.006 99.8637 186.655 98.2896 186.169 96.8363C187.666 96.4029 189.094 95.8099 190.432 95.074C191.119 96.4399 191.979 97.7973 192.819 98.0964C194.84 98.8171 198.655 95.0001 198.655 95.0001C198.655 95.0001 202.444 91.2134 201.753 89.1621C201.469 88.3171 200.108 87.4519 198.739 86.7681C199.477 85.4308 200.07 84.0012 200.501 82.506C201.953 82.9864 203.524 83.3376 204.329 82.9562C206.266 82.0389 206.266 76.6394 206.266 76.6394C206.266 76.6394 206.266 71.2836 204.329 70.3209C203.527 69.9261 201.956 70.2756 200.501 70.7611C200.068 69.2659 199.475 67.8379 198.739 66.5006C200.107 65.8152 201.462 64.9516 201.76 64.1133C202.482 62.094 198.665 58.2753 198.665 58.2753C198.665 58.2753 198.491 58.104 198.21 57.8469C195.781 63.2028 192.617 67.9924 188.993 72.263C189.659 73.5784 190.04 75.0619 190.04 76.636C190.04 82.0171 185.682 86.3767 180.301 86.3767C178.438 86.3767 176.703 85.8441 175.224 84.9369C170.458 88.428 165.532 91.3444 160.83 93.7569C161.435 94.4928 161.935 94.9951 161.935 94.9951C161.935 94.9951 165.719 98.7801 167.77 98.0896Z" fill="#114068"/>
<path d="M166.693 254.372H224.223C228.038 254.372 231.131 257.468 231.131 261.282V283.575C231.131 287.392 228.038 290.483 224.223 290.483H195.832L187.031 301.143V290.483H166.695C162.879 290.483 159.786 287.392 159.786 283.575V261.282C159.785 257.468 162.878 254.372 166.693 254.372Z" fill="#FC8B3F"/>
<path d="M194.408 265.077C192.294 263.852 189.176 265.13 186.66 267.949C184.146 265.132 181.027 263.852 178.913 265.077C176.245 266.627 176.208 271.545 178.831 276.06C180.936 279.689 184.108 281.91 186.66 281.86C189.215 281.91 192.383 279.689 194.49 276.06C197.114 271.545 197.077 266.627 194.408 265.077Z" fill="white"/>
<path d="M209.296 266.15V281.187H207.475V268.059H207.387L203.715 270.497V268.647L207.475 266.15H209.296Z" fill="white"/>
<path opacity="0.1" d="M231.131 261.283C231.131 257.468 228.038 254.373 224.223 254.373H212.408C213.29 274.589 194.433 285.136 177.855 290.487H187.031V301.146L195.833 290.487H224.223C228.038 290.487 231.131 287.395 231.131 283.578V261.283Z" fill="#114068"/>
<path d="M228.794 86.3515H286.323C290.138 86.3515 293.232 89.4444 293.232 93.2597V115.555C293.232 119.37 290.138 122.463 286.323 122.463H257.934L249.132 133.124V122.463H228.796C224.979 122.463 221.886 119.369 221.886 115.555V93.2597C221.883 89.4444 224.977 86.3515 228.794 86.3515Z" fill="#FC8B3F"/>
<path d="M271.395 97.4662V112.503H269.574V99.3752H269.486L265.815 101.813V99.9626L269.574 97.4662H271.395Z" fill="white"/>
<path d="M255.028 98.4861H243.31C241.888 98.4861 240.737 99.6386 240.737 101.058V109.357C240.737 110.779 241.89 111.93 243.31 111.93H249.03L252.306 115.898V111.93H255.028C256.449 111.93 257.6 110.779 257.6 109.357V101.058C257.601 99.6386 256.45 98.4861 255.028 98.4861Z" fill="white"/>
<path opacity="0.1" d="M293.233 93.2597C293.233 89.4444 290.138 86.3515 286.323 86.3515H274.509C275.388 106.567 256.535 117.114 239.956 122.463H249.133V133.124L257.934 122.463H286.323C290.138 122.463 293.233 119.369 293.233 115.555V93.2597Z" fill="#114068"/>
<path d="M653.38 207.379C653.965 183.993 635.48 164.56 612.093 163.975C588.705 163.39 569.272 181.875 568.687 205.261C568.102 228.648 586.587 248.081 609.975 248.666C633.362 249.25 652.796 230.766 653.38 207.379Z" fill="#FC8B3F"/>
<path d="M632.114 188.222C624.234 195.326 616.352 202.433 608.468 209.539C603.448 207.024 598.426 204.511 593.411 201.994C590.345 200.459 587.644 205.059 590.718 206.597C596.33 209.41 601.944 212.222 607.555 215.031C608.681 215.594 609.844 215.463 610.784 214.614C619.151 207.076 627.519 199.533 635.882 191.992C638.442 189.687 634.66 185.928 632.114 188.222Z" fill="white"/>
<path d="M611.036 173.295C612.251 173.295 613.235 172.31 613.235 171.096C613.235 169.881 612.251 168.897 611.036 168.897C609.822 168.897 608.837 169.881 608.837 171.096C608.837 172.31 609.822 173.295 611.036 173.295Z" fill="#F46C0F"/>
<path d="M613.234 242.04C613.234 243.255 612.247 244.24 611.034 244.24C609.818 244.24 608.835 243.255 608.835 242.04C608.835 240.826 609.818 239.843 611.034 239.843C612.247 239.845 613.234 240.827 613.234 242.04Z" fill="#F46C0F"/>
<path d="M646.507 208.768C645.293 208.768 644.31 207.782 644.31 206.567C644.31 205.354 645.293 204.37 646.507 204.37C647.725 204.37 648.707 205.354 648.707 206.567C648.705 207.782 647.725 208.768 646.507 208.768Z" fill="#F46C0F"/>
<path d="M575.561 208.768C574.345 208.768 573.364 207.782 573.364 206.567C573.364 205.354 574.345 204.37 575.561 204.37C576.776 204.37 577.757 205.354 577.757 206.567C577.757 207.782 576.776 208.768 575.561 208.768Z" fill="#F46C0F"/>
<path d="M630.843 177.058C630.232 178.106 628.882 178.457 627.834 177.843C626.784 177.233 626.433 175.885 627.046 174.837C627.661 173.789 629.005 173.439 630.055 174.049C631.102 174.662 631.455 176.011 630.843 177.058Z" fill="#F46C0F"/>
<path d="M595.024 238.301C594.409 239.349 593.063 239.7 592.015 239.087C590.968 238.472 590.615 237.126 591.227 236.08C591.839 235.03 593.188 234.679 594.236 235.294C595.288 235.903 595.639 237.251 595.024 238.301Z" fill="#F46C0F"/>
<path d="M640.54 226.374C639.495 225.761 639.142 224.416 639.756 223.367C640.369 222.319 641.714 221.968 642.761 222.579C643.814 223.193 644.164 224.54 643.551 225.587C642.939 226.635 641.593 226.989 640.54 226.374Z" fill="#F46C0F"/>
<path d="M579.306 190.559C578.256 189.944 577.903 188.598 578.515 187.551C579.128 186.503 580.475 186.15 581.522 186.762C582.57 187.375 582.925 188.722 582.311 189.769C581.7 190.817 580.351 191.172 579.306 190.559Z" fill="#F46C0F"/>
<path d="M591.229 177.058C591.842 178.106 593.189 178.457 594.237 177.843C595.287 177.233 595.639 175.885 595.027 174.837C594.411 173.789 593.065 173.439 592.017 174.049C590.968 174.662 590.615 176.011 591.229 177.058Z" fill="#F46C0F"/>
<path d="M627.048 238.301C627.661 239.349 629.005 239.7 630.055 239.087C631.102 238.472 631.454 237.126 630.843 236.08C630.231 235.03 628.882 234.679 627.834 235.294C626.784 235.903 626.433 237.251 627.048 238.301Z" fill="#F46C0F"/>
<path d="M581.527 226.374C582.573 225.761 582.924 224.416 582.311 223.367C581.7 222.319 580.354 221.968 579.307 222.579C578.256 223.193 577.903 224.54 578.516 225.587C579.129 226.635 580.475 226.989 581.527 226.374Z" fill="#F46C0F"/>
<path d="M642.766 190.559C643.814 189.944 644.164 188.598 643.554 187.551C642.941 186.503 641.593 186.15 640.547 186.762C639.497 187.375 639.146 188.722 639.756 189.769C640.37 190.817 641.716 191.172 642.766 190.559Z" fill="#F46C0F"/>
<path d="M333.513 66.6555V65.35L338.416 59.9834C338.991 59.3548 339.465 58.8085 339.837 58.3443C340.209 57.8754 340.485 57.4354 340.664 57.0244C340.848 56.6086 340.94 56.1735 340.94 55.719C340.94 55.1969 340.814 54.7448 340.562 54.3628C340.316 53.9809 339.977 53.686 339.547 53.4781C339.117 53.2702 338.633 53.1662 338.097 53.1662C337.526 53.1662 337.028 53.2847 336.603 53.5216C336.182 53.7537 335.856 54.08 335.624 54.5006C335.396 54.9213 335.283 55.4144 335.283 55.9801H333.571C333.571 55.1098 333.772 54.3459 334.173 53.6884C334.574 53.0308 335.121 52.5183 335.812 52.1509C336.508 51.7834 337.289 51.5997 338.155 51.5997C339.025 51.5997 339.796 51.7834 340.468 52.1509C341.14 52.5183 341.667 53.0139 342.049 53.6376C342.431 54.2613 342.622 54.9551 342.622 55.719C342.622 56.2654 342.523 56.7996 342.325 57.3218C342.131 57.8391 341.793 58.4169 341.309 59.0551C340.831 59.6884 340.166 60.462 339.315 61.3758L335.979 64.9439V65.06H342.883V66.6555H333.513ZM345.211 63.6095V62.13L351.738 51.8028H352.812V54.0945H352.086L347.155 61.898V62.014H355.944V63.6095H345.211ZM352.202 66.6555V63.1599V62.4709V51.8028H353.914V66.6555H352.202ZM363.942 51.1066L359.155 68.8892H357.589L362.375 51.1066H363.942ZM366.406 66.6555L373.049 53.5143V53.3983H365.391V51.8028H374.906V53.4853L368.291 66.6555H366.406Z" fill="#00CBC3"/>
<path d="M392.555 59.7134C392.196 76.2362 381.97 90.281 366.292 95.5697C350.613 100.865 333.352 94.1433 323.963 80.9889C314.346 67.5204 315.702 48.9429 325.659 36.1531C336.514 22.2108 356.012 18.7029 371.653 26.0311C367.52 27.5045 363.391 28.9795 359.261 30.4529C357.353 31.135 358.176 34.1959 360.105 33.5071C365.17 31.6994 370.232 29.8884 375.298 28.0824C376.125 27.7867 376.622 27.0206 376.404 26.137C375.099 20.8819 373.791 15.6269 372.489 10.3718C371.997 8.39111 368.945 9.23279 369.439 11.2152C370.403 15.1044 371.367 18.9936 372.335 22.8828C355.18 15.3009 335.652 19.4841 323.423 33.9187C311.788 47.6527 311.584 67.8211 321.228 82.59C331.062 97.6495 350.235 103.535 367.135 98.6239C384.271 93.6461 395.343 77.1115 395.722 59.7168C395.766 57.6689 392.601 57.6756 392.555 59.7134Z" fill="#00CBC3"/>
<path d="M580.892 453.403C572.596 446.372 560.307 465.447 557.839 475.25C556.519 467.451 554.745 459.587 552.46 451.869C557.098 452.106 573.608 432.82 564.838 428.043C557.765 424.189 551.686 439.272 551.02 447.232C548.92 440.793 546.451 434.491 543.573 428.453C549.822 426.735 564.351 395.831 551.19 392.715C541.199 390.349 538.288 409.459 539.573 420.702C536.576 415.359 533.217 410.301 529.476 405.625C534.504 401.723 541.323 375.023 530.032 374.394C521.246 373.904 521.598 390.344 524.342 399.75C522.163 397.449 519.878 395.265 517.469 393.222C519.54 386.702 491.511 356.971 482.606 370.008C474.128 382.425 508.081 396.879 515.938 394.517C518.919 397.024 521.708 399.757 524.33 402.667C515.849 399.05 497.991 397.01 497.941 406.056C497.88 417.075 524.439 411.941 528.244 407.282C532.27 412.371 535.821 417.93 538.96 423.801C530.039 417.945 510.063 411.967 508.165 422.274C505.895 434.582 535.976 434.39 542.126 430.101C544.512 435.195 546.592 440.489 548.42 445.88C542.508 440.359 531.68 434.426 528.681 440.665C524.834 448.66 544.638 454.221 550.641 452.917C552.482 459.212 553.975 465.6 555.163 471.955C549.073 463.298 536.735 452.758 531.221 459.967C523.977 469.439 549.387 482.255 556.722 481.462C557.88 489.661 558.548 497.703 558.78 505.298C558.82 506.622 560.88 506.629 560.84 505.298C560.598 497.417 559.894 489.1 558.678 480.631C564.506 482.225 590.868 461.863 580.892 453.403Z" fill="#57B1B4"/>
<path d="M632.152 384.195C634.866 379.814 637.737 375.481 640.766 371.271C648.497 372.402 679.297 350.364 668.143 340.006C656.751 329.432 636.462 363.394 639.143 370.072C637.056 372.995 635.059 375.982 633.117 378.992C634.686 369.665 633.654 356.403 625.898 357.225C615.047 358.372 622.823 383.703 627.88 387.372C626.682 389.363 625.508 391.352 624.356 393.34C621.915 397.543 619.618 401.822 617.414 406.145C618.722 395.774 616.11 377.648 606.742 379.846C594.341 382.754 608.38 412.329 614.008 413.073C610.376 420.72 607.102 428.524 604.177 436.46C604.343 423.66 598.215 401 586.898 405.273C572.077 410.862 594.415 445.242 601.259 444.756C598.633 452.59 596.342 460.531 594.368 468.558C592.617 459.96 586.631 447.669 580.019 451.385C571.299 456.287 586.918 474.729 592.604 476.147C589.237 491.48 586.994 507.069 585.88 522.721C585.788 524.034 587.817 524.381 587.913 523.057C589.03 507.319 591.303 491.727 594.7 476.414C600.049 478.705 624.629 471.98 619.983 462.643C616.139 454.922 601.674 464.219 595.985 470.867C598.047 462.332 600.474 453.89 603.265 445.574C611.547 449.729 647.721 445.255 643.074 430.762C639.185 418.647 616.15 428.831 606.188 437.285C609.089 429.428 612.325 421.693 615.907 414.088C622.607 418.145 651.357 418.204 649.178 406.23C647.35 396.206 628.201 401.713 619.173 407.383C621.145 403.467 623.18 399.581 625.34 395.745C626.726 393.286 628.173 390.815 629.643 388.345C633.543 392.988 661.542 397.049 660.912 385.618C660.37 375.757 639.926 379.691 632.152 384.195Z" fill="#57B1B4"/>
<path d="M613.504 557.864C612.984 561.738 609.361 564.91 605.45 564.91H544.641C540.73 564.91 537.177 561.729 536.743 557.845L529.435 492.423C529 488.537 531.845 485.358 535.756 485.358H616.115C620.024 485.358 622.796 488.528 622.281 492.406L613.504 557.864Z" fill="#FC8B3F"/>
<path opacity="0.1" d="M616.115 485.358H601.514C603.712 508.117 599.023 542.088 559.815 564.911H605.452C609.363 564.911 612.985 561.738 613.506 557.865L622.282 492.407C622.798 488.528 620.024 485.358 616.115 485.358Z" fill="#114068"/>
<path d="M631.633 491.584C631.633 496.698 627.489 500.843 622.377 500.843H529.357C524.244 500.843 520.098 496.698 520.098 491.584C520.098 486.47 524.244 482.326 529.357 482.326H622.377C627.49 482.327 631.633 486.47 631.633 491.584Z" fill="#F46C0F"/>
<path d="M151.842 561.889C150.658 561.889 149.47 561.78 148.306 561.56C135.523 559.144 127.616 543.98 130.679 527.75C133.458 513.041 144.059 502.367 155.888 502.367C157.072 502.367 158.26 502.476 159.422 502.696C172.207 505.112 180.113 520.279 177.05 536.506C174.272 551.212 163.669 561.889 151.842 561.889ZM155.888 510.595C148.139 510.595 140.778 518.629 138.767 529.28C136.546 541.047 141.51 551.898 149.834 553.47C150.495 553.596 151.168 553.659 151.842 553.659C159.59 553.659 166.952 545.63 168.963 534.979C171.184 523.207 166.22 512.356 157.897 510.785C157.235 510.659 156.56 510.595 155.888 510.595Z" fill="#FC8B3F"/>
<path d="M151.156 495.42H89.3929C89.3929 495.42 81.1626 543.868 105.578 564.91H118.784H121.765H134.971C159.388 543.868 151.156 495.42 151.156 495.42Z" fill="#FC8B3F"/>
<path opacity="0.1" d="M121.765 564.911H134.971C159.388 543.869 151.156 495.421 151.156 495.421H134.728C129.916 513.355 119.183 541.023 96.9344 554.292C99.2226 558.247 102.048 561.869 105.578 564.911H118.785H121.765Z" fill="#114068"/>
<path d="M110.678 490.343C110.678 490.343 102.236 484.71 104.283 477.039C106.331 469.365 116.248 455.458 107.322 446.082C107.322 446.082 121.681 453.756 117.076 464.758C112.469 475.76 106.841 480.367 110.678 490.343Z" fill="#CEDDF4"/>
<path d="M132.587 479.705C132.587 479.705 124.145 474.072 126.192 466.401C128.24 458.727 138.157 444.818 129.231 435.444C129.231 435.444 143.59 443.12 138.983 454.122C134.378 465.119 128.749 469.729 132.587 479.705Z" fill="#CEDDF4"/>
<path d="M151.156 495.416C151.156 498.79 137.232 501.523 120.059 501.523C102.886 501.523 88.9626 498.79 88.9626 495.416C88.9626 492.046 102.886 489.313 120.059 489.313C137.232 489.315 151.156 492.048 151.156 495.416Z" fill="#F46C0F"/>
<path d="M93.1577 498.471C98.5354 500.292 108.557 501.523 120.06 501.523C131.564 501.523 141.584 500.292 146.961 498.471C141.584 496.65 131.564 495.42 120.06 495.42C108.557 495.42 98.5371 496.65 93.1577 498.471Z" fill="#AF622E"/>
<path d="M446.464 41.042L441.367 23.79L436.268 41.042L420.503 46.4633L436.268 51.8864L441.367 69.1349L446.464 51.8864L462.23 46.4633L446.464 41.042Z" fill="#B8E1E2"/>
<path d="M471.593 231.312L468.136 219.616L464.676 231.312L453.987 234.99L464.676 238.669L468.136 250.363L471.593 238.669L482.283 234.99L471.593 231.312Z" fill="white"/>
<path d="M524.883 214.695L523.082 208.592L521.278 214.695L515.7 216.612L521.278 218.531L523.082 224.636L524.883 218.531L530.462 216.612L524.883 214.695Z" fill="white"/>
<path d="M635.171 297.741L631.635 285.779L628.1 297.741L617.167 301.501L628.1 305.259L631.635 317.222L635.171 305.259L646.103 301.501L635.171 297.741Z" fill="#B8E1E2"/>
<path d="M560.978 347.091L556.979 333.557L552.977 347.091L540.611 351.341L552.977 355.598L556.979 369.127L560.978 355.598L573.342 351.341L560.978 347.091Z" fill="white"/>
<path d="M469.938 336.062L468.136 329.958L466.333 336.062L460.754 337.982L466.333 339.9L468.136 346.004L469.938 339.9L475.518 337.982L469.938 336.062Z" fill="white"/>
<path d="M595.152 129.249L593.126 122.401L591.102 129.249L584.845 131.402L591.102 133.553L593.126 140.401L595.152 133.553L601.408 131.402L595.152 129.249Z" fill="#B8E1E2"/>
<path d="M206.516 7.08745L204.495 0.238098L202.469 7.08745L196.211 9.23953L202.469 11.3899L204.495 18.2393L206.516 11.3899L212.776 9.23953L206.516 7.08745Z" fill="#B8E1E2"/>
<path d="M533.131 17.7706L529.598 5.80896L526.064 17.7706L515.129 21.5304L526.064 25.2919L529.598 37.2518L533.131 25.2919L544.065 21.5304L533.131 17.7706Z" fill="#B8E1E2"/>
<path d="M273.724 42.2213L270.191 30.258L266.655 42.2213L255.722 45.9811L266.655 49.741L270.191 61.7026L273.724 49.741L284.658 45.9811L273.724 42.2213Z" fill="#B8E1E2"/>
<path d="M110.995 59.5505L108.972 52.7028L106.947 59.5505L100.689 61.7026L106.947 63.853L108.972 70.7007L110.995 63.853L117.253 61.7026L110.995 59.5505Z" fill="#B8E1E2"/>
<path d="M45.3887 196.019L40.2933 178.767L35.1928 196.019L19.426 201.44L35.1928 206.863L40.2933 224.112L45.3887 206.863L61.1539 201.44L45.3887 196.019Z" fill="#B8E1E2"/>
<path d="M241.396 170.585L235.834 151.759L230.266 170.585L213.061 176.5L230.266 182.422L235.834 201.243L241.396 182.422L258.599 176.5L241.396 170.585Z" fill="white"/>
<path d="M92.4204 281.359L88.9646 269.663L85.5038 281.359L74.814 285.038L85.5038 288.716L88.9646 300.41L92.4204 288.716L103.112 285.038L92.4204 281.359Z" fill="white"/>
<path d="M223.687 336.062L221.883 329.958L220.08 336.062L214.501 337.982L220.08 339.9L221.883 346.004L223.687 339.9L229.265 337.982L223.687 336.062Z" fill="white"/>
<path d="M179.498 417.814L176.042 406.116L172.583 417.814L161.892 421.488L172.583 425.169L176.042 436.863L179.498 425.169L190.188 421.488L179.498 417.814Z" fill="white"/>
<path d="M18.1659 395.831L14.6312 383.866L11.0965 395.831L0.159668 399.593L11.0965 403.352L14.6312 415.312L18.1659 403.352L29.096 399.593L18.1659 395.831Z" fill="#B8E1E2"/>
<path d="M31.1927 448.578L29.17 441.727L27.1439 448.578L20.8876 450.728L27.1439 452.879L29.17 459.727L31.1927 452.879L37.449 450.728L31.1927 448.578Z" fill="#B8E1E2"/>
<path d="M686.908 433.1L683.374 421.14L679.839 433.1L668.904 436.863L679.839 440.62L683.374 452.585L686.908 440.62L697.84 436.863L686.908 433.1Z" fill="#B8E1E2"/>
</svg>
