<svg width="80" height="86" viewBox="0 0 80 86" fill="none" xmlns="http://www.w3.org/2000/svg">
<path d="M40 2.80701C29.3951 2.80418 19.2233 7.01388 11.722 14.5102C4.22073 22.0065 0.00424272 32.1754 0 42.7803C0.00140058 48.0318 1.03714 53.2316 3.04809 58.0828C5.05903 62.934 8.0058 67.3416 11.7201 71.054C15.4345 74.7663 19.8437 77.7107 24.6959 79.7191C29.5482 81.7275 34.7485 82.7604 40 82.759C46.9653 82.759 55.52 81.0097 61.6213 77.7084L76.5013 82.6257C76.9712 82.7799 77.4748 82.8005 77.9557 82.685C78.4366 82.5695 78.8759 82.3225 79.2246 81.9717C79.5732 81.6208 79.8173 81.18 79.9298 80.6983C80.0423 80.2167 80.0185 79.7133 79.8613 79.2444L74.9227 64.4657C78.5067 58.2097 80 50.0337 80 42.7803C79.9958 32.1754 75.7793 22.0065 68.278 14.5102C60.7767 7.01388 50.6049 2.80418 40 2.80701Z" fill="#B8E1E2"/>
<path d="M37.6421 38.1981C38.3031 38.1981 38.7714 38.4047 39.0468 38.8179C39.3498 39.2311 39.5013 39.837 39.5013 40.6358C39.5013 40.9939 39.4462 41.4346 39.3361 41.958C39.2534 42.4538 39.1432 42.8256 39.0055 43.0735H35.3696V63.8561C35.1493 63.9387 34.7085 64.0213 34.0475 64.104C33.3864 64.1866 32.7804 64.2279 32.2295 64.2279C31.0175 64.2279 30.1086 64.0489 29.5026 63.6908C28.8966 63.3052 28.5936 62.4926 28.5936 61.2531V59.8483C27.6295 60.9226 26.7756 61.8315 26.0319 62.5752C25.3158 63.319 24.6409 63.9112 24.0074 64.3519C23.3739 64.8201 22.7679 65.1507 22.1894 65.3435C21.611 65.5639 21.0188 65.674 20.4128 65.674C19.3386 65.674 18.4709 65.3159 17.8098 64.5998C17.1488 63.8836 16.8182 62.9333 16.8182 61.7489L28.5936 54.3531V43.0735H23.2637C23.7319 43.8173 24.1038 44.6574 24.3793 45.5939C24.6822 46.5304 24.8337 47.6184 24.8337 48.8579C24.8337 50.1526 24.6409 51.3232 24.2553 52.3699C23.8697 53.4166 23.3463 54.3118 22.6852 55.0555C22.0242 55.7992 21.2391 56.3777 20.3302 56.7908C19.4212 57.1765 18.4434 57.3693 17.3967 57.3693C16.1571 57.3693 15.138 57.0801 14.3392 56.5016C13.5679 55.8956 13.1823 55.0417 13.1823 53.94C13.1823 53.334 13.3063 52.6729 13.5542 51.9567C15.0967 51.9567 16.1985 51.5711 16.8595 50.7999C17.5481 50.0286 17.8925 48.8579 17.8925 47.2879C17.8925 46.4891 17.7685 45.7316 17.5206 45.0155C17.2727 44.2717 16.9559 43.6244 16.5703 43.0735H12.6039C11.9152 43.0735 11.4332 42.867 11.1578 42.4538C10.8823 42.0131 10.7446 41.3795 10.7446 40.5532C10.7446 40.2227 10.7859 39.8095 10.8685 39.3137C10.9512 38.8179 11.0614 38.446 11.1991 38.1981H37.6421ZM49.9584 38.1981C50.6195 38.1981 51.0878 38.4047 51.3632 38.8179C51.6662 39.2311 51.8177 39.837 51.8177 40.6358C51.8177 40.9939 51.7626 41.4346 51.6524 41.958C51.5698 42.4538 51.4596 42.8256 51.3219 43.0735H47.6034V63.8561C47.383 63.9387 46.9423 64.0213 46.2812 64.104C45.6201 64.1866 45.0142 64.2279 44.4633 64.2279C43.2513 64.2279 42.3423 64.0489 41.7363 63.6908C41.1303 63.3052 40.8274 62.4926 40.8274 61.2531V43.0735H38.4723C37.7837 43.0735 37.3016 42.867 37.0262 42.4538C36.7507 42.0131 36.613 41.3795 36.613 40.5532C36.613 40.2227 36.6543 39.8095 36.737 39.3137C36.8196 38.8179 36.9298 38.446 37.0675 38.1981H49.9584Z" fill="url(#paint0_linear_18_509)"/>
<path d="M52.2497 33.7036V42.8347C51.9467 42.9174 51.4646 43 50.8036 43.0826C50.1425 43.1653 49.4952 43.2066 48.8617 43.2066C48.2281 43.2066 47.6635 43.1515 47.1677 43.0413C46.6994 42.9587 46.3 42.7934 45.9695 42.5455C45.6389 42.2976 45.391 41.9533 45.2258 41.5126C45.0605 41.0719 44.9779 40.4934 44.9779 39.7773V17.9618C45.2808 17.9067 45.7629 17.8379 46.424 17.7552C47.085 17.645 47.7186 17.59 48.3245 17.59C48.9581 17.59 49.509 17.645 49.9772 17.7552C50.473 17.8379 50.8862 18.0031 51.2167 18.251C51.5473 18.4989 51.7952 18.8432 51.9604 19.284C52.1257 19.7247 52.2084 20.3031 52.2084 21.0193V27.5887L60.8023 17.7139C62.6754 17.7139 64.0113 18.072 64.8101 18.7881C65.6364 19.4768 66.0496 20.3031 66.0496 21.2672C66.0496 21.9833 65.8706 22.6582 65.5125 23.2917C65.1544 23.9252 64.576 24.6414 63.7772 25.4402L58.6125 30.6049C59.3011 31.3761 60.0173 32.1749 60.761 33.0012C61.5323 33.8276 62.276 34.6402 62.9921 35.439C63.7358 36.2102 64.4382 36.9539 65.0993 37.6701C65.7879 38.3863 66.3801 39.006 66.8759 39.5294C66.8759 40.1353 66.7658 40.6725 66.5454 41.1407C66.325 41.609 66.0221 42.0084 65.6364 42.3389C65.2783 42.6695 64.8652 42.9174 64.3969 43.0826C63.9287 43.2479 63.4328 43.3305 62.9095 43.3305C61.7802 43.3305 60.8574 43.0551 60.1412 42.5042C59.4251 41.9258 58.7365 41.2509 58.0754 40.4797L52.2497 33.7036Z" fill="url(#paint1_linear_18_509)"/>
<path d="M52.7873 63.2015C52.7509 63.172 52.7237 63.1311 52.7121 63.0802C52.3679 61.629 51.1816 60.6684 49.6906 60.6334C49.5693 60.6295 49.4734 60.5292 49.4754 60.4102C49.4794 60.289 49.5797 60.193 49.6986 60.1951C51.3983 60.2331 52.7486 61.3265 53.1369 62.9793C53.1659 63.0971 53.0929 63.2152 52.9729 63.2424C52.9082 63.2617 52.8397 63.2439 52.7873 63.2015Z" fill="url(#paint2_linear_18_509)"/>
<path d="M54.0917 62.9457C54.0552 62.9162 54.028 62.8753 54.0164 62.8244C53.5218 60.7349 51.8164 59.3539 49.672 59.3064C49.5507 59.3024 49.4548 59.2021 49.4568 59.0832C49.4566 58.9623 49.5588 58.8641 49.68 58.868C52.0313 58.9209 53.9007 60.4347 54.4435 62.7254C54.4725 62.8432 54.3995 62.9613 54.2795 62.9885C54.2126 63.0059 54.1418 62.9863 54.0917 62.9457Z" fill="url(#paint3_linear_18_509)"/>
<path d="M51.6864 63.686C51.65 63.6565 51.6228 63.6156 51.6112 63.5648C51.3666 62.526 50.5173 61.8382 49.448 61.8131C49.3268 61.8092 49.2308 61.7089 49.2329 61.5899C49.2368 61.4687 49.3372 61.3727 49.4561 61.3748C50.7299 61.4034 51.7431 62.2239 52.0359 63.4639C52.065 63.5817 51.992 63.6997 51.8719 63.7269C51.805 63.7444 51.7365 63.7266 51.6864 63.686Z" fill="url(#paint4_linear_18_509)"/>
<path d="M50.4172 64.038C50.3808 64.0085 50.3536 63.9676 50.342 63.9168C50.2322 63.4471 49.8474 63.1355 49.3652 63.1258C49.2439 63.1218 49.148 63.0215 49.15 62.9026C49.154 62.7813 49.2543 62.6854 49.3732 62.6874C50.0623 62.7025 50.6088 63.145 50.7668 63.8159C50.7958 63.9337 50.7228 64.0517 50.6028 64.0789C50.54 64.096 50.4696 64.0804 50.4172 64.038Z" fill="url(#paint5_linear_18_509)"/>
<path d="M58.6201 46.3745C58.6554 46.4053 58.6812 46.4471 58.691 46.4983C58.9843 47.9607 60.1364 48.9621 61.6253 49.0491C61.7464 49.0572 61.8388 49.1608 61.8325 49.2797C61.8244 49.4007 61.7208 49.4931 61.6019 49.4868C59.9046 49.3895 58.5933 48.2497 58.263 46.5843C58.2381 46.4656 58.3151 46.3501 58.4361 46.3272C58.5013 46.3101 58.5692 46.3303 58.6201 46.3745Z" fill="url(#paint6_linear_18_509)"/>
<path d="M57.3079 46.5847C57.3433 46.6154 57.369 46.6572 57.3788 46.7085C57.8002 48.814 59.4564 50.2537 61.5979 50.376C61.7189 50.3842 61.8113 50.4878 61.8051 50.6066C61.8011 50.7273 61.6955 50.8219 61.5745 50.8138C59.2266 50.6789 57.4111 49.1008 56.9486 46.7925C56.9237 46.6738 57.0007 46.5584 57.1217 46.5354C57.1891 46.5203 57.2592 46.5424 57.3079 46.5847Z" fill="url(#paint7_linear_18_509)"/>
<path d="M59.7373 45.9287C59.7727 45.9595 59.7985 46.0013 59.8083 46.0525C60.0165 47.0992 60.8413 47.8162 61.909 47.8786C62.03 47.8868 62.1224 47.9904 62.1162 48.1092C62.108 48.2302 62.0044 48.3226 61.8856 48.3164C60.6136 48.2433 59.6296 47.388 59.3803 46.1385C59.3553 46.0198 59.4324 45.9044 59.5533 45.8814C59.6208 45.8663 59.6887 45.8864 59.7373 45.9287Z" fill="url(#paint8_linear_18_509)"/>
<path d="M61.0179 45.6212C61.0533 45.6519 61.0791 45.6937 61.0889 45.745C61.1822 46.2182 61.5559 46.5431 62.0375 46.5696C62.1585 46.5778 62.2509 46.6814 62.2447 46.8002C62.2366 46.9212 62.1329 47.0136 62.0141 47.0074C61.326 46.9683 60.7953 46.5069 60.6608 45.831C60.6359 45.7123 60.713 45.5968 60.8339 45.5738C60.8973 45.559 60.9671 45.577 61.0179 45.6212Z" fill="url(#paint9_linear_18_509)"/>
<defs>
<linearGradient id="paint0_linear_18_509" x1="31.3973" y1="20.8148" x2="31.3973" y2="85.8148" gradientUnits="userSpaceOnUse">
<stop stop-color="#00CBC3"/>
<stop offset="1" stop-color="#006A66"/>
</linearGradient>
<linearGradient id="paint1_linear_18_509" x1="55.2922" y1="0" x2="55.2922" y2="65" gradientUnits="userSpaceOnUse">
<stop stop-color="#00CBC3"/>
<stop offset="1" stop-color="#006A66"/>
</linearGradient>
<linearGradient id="paint2_linear_18_509" x1="51.9095" y1="60.9817" x2="51.1715" y2="61.893" gradientUnits="userSpaceOnUse">
<stop stop-color="#00CBC3"/>
<stop offset="1" stop-color="#006A66"/>
</linearGradient>
<linearGradient id="paint3_linear_18_509" x1="52.7408" y1="59.9582" x2="51.8147" y2="61.1018" gradientUnits="userSpaceOnUse">
<stop stop-color="#00CBC3"/>
<stop offset="1" stop-color="#006A66"/>
</linearGradient>
<linearGradient id="paint4_linear_18_509" x1="51.1147" y1="61.9658" x2="50.4998" y2="62.7251" gradientUnits="userSpaceOnUse">
<stop stop-color="#00CBC3"/>
<stop offset="1" stop-color="#006A66"/>
</linearGradient>
<linearGradient id="paint5_linear_18_509" x1="50.27" y1="63.0064" x2="49.8238" y2="63.5574" gradientUnits="userSpaceOnUse">
<stop stop-color="#00CBC3"/>
<stop offset="1" stop-color="#006A66"/>
</linearGradient>
<linearGradient id="paint6_linear_18_509" x1="59.4199" y1="48.6236" x2="60.1892" y2="47.7386" gradientUnits="userSpaceOnUse">
<stop stop-color="#00CBC3"/>
<stop offset="1" stop-color="#006A66"/>
</linearGradient>
<linearGradient id="paint7_linear_18_509" x1="58.5537" y1="49.6175" x2="59.5191" y2="48.5069" gradientUnits="userSpaceOnUse">
<stop stop-color="#00CBC3"/>
<stop offset="1" stop-color="#006A66"/>
</linearGradient>
<linearGradient id="paint8_linear_18_509" x1="60.2486" y1="47.6679" x2="60.8897" y2="46.9305" gradientUnits="userSpaceOnUse">
<stop stop-color="#00CBC3"/>
<stop offset="1" stop-color="#006A66"/>
</linearGradient>
<linearGradient id="paint9_linear_18_509" x1="61.1291" y1="46.6573" x2="61.5943" y2="46.1222" gradientUnits="userSpaceOnUse">
<stop stop-color="#00CBC3"/>
<stop offset="1" stop-color="#006A66"/>
</linearGradient>
</defs>
</svg>
